<?xml version="1.0" encoding="UTF-8" standalone="no"?>
<!-- Creator: CorelDRAW X7 -->

<svg
   xml:space="preserve"
   width="20.6955mm"
   height="14.0081mm"
   version="1.1"
   style="shape-rendering:geometricPrecision; text-rendering:geometricPrecision; image-rendering:optimizeQuality; fill-rule:evenodd; clip-rule:evenodd"
   viewBox="0 0 3883 2628"
   id="svg10"
   sodipodi:docname="lime.svg"
   inkscape:export-filename="lime.png"
   inkscape:export-xdpi="1200"
   inkscape:export-ydpi="1200"
   inkscape:version="1.3 (0e150ed6c4, 2023-07-21)"
   xmlns:inkscape="http://www.inkscape.org/namespaces/inkscape"
   xmlns:sodipodi="http://sodipodi.sourceforge.net/DTD/sodipodi-0.dtd"
   xmlns="http://www.w3.org/2000/svg"
   xmlns:svg="http://www.w3.org/2000/svg"><sodipodi:namedview
   id="namedview10"
   pagecolor="#ffffff"
   bordercolor="#000000"
   borderopacity="0.25"
   inkscape:showpageshadow="2"
   inkscape:pageopacity="0.0"
   inkscape:pagecheckerboard="0"
   inkscape:deskcolor="#d1d1d1"
   inkscape:document-units="mm"
   inkscape:zoom="11.247734"
   inkscape:cx="35.651626"
   inkscape:cy="40.67486"
   inkscape:window-width="3440"
   inkscape:window-height="1387"
   inkscape:window-x="-8"
   inkscape:window-y="-8"
   inkscape:window-maximized="1"
   inkscape:current-layer="Layer_x0020_1" />&#10; <defs
   id="defs1">&#10;  <style
   type="text/css"
   id="style1">&#10;   <![CDATA[
    .str1 {stroke:#57B952;stroke-width:187.612;stroke-linecap:round}
    .str2 {stroke:#373435;stroke-width:168.851;stroke-linecap:round}
    .str0 {stroke:#57B952;stroke-width:37.5224;stroke-linecap:round}
    .fil0 {fill:none}
    .fil3 {fill:#373435}
    .fil1 {fill:#373435;fill-rule:nonzero}
    .fil2 {fill:#57B952;fill-rule:nonzero}
   ]]>&#10;  </style>&#10; </defs>&#10; <g
   id="Layer_x0020_1"
   inkscape:label="Layer 1">&#10;  <metadata
   id="CorelCorpID_0Corel-Layer" />&#10;  <g
   id="_27960738192">&#10;   <line
   class="fil0 str0"
   x1="1721"
   y1="376"
   x2="1721"
   y2="247"
   id="line1" />&#10;   <line
   class="fil0 str0"
   x1="2393"
   y1="556"
   x2="2458"
   y2="445"
   id="line2" />&#10;   <line
   class="fil0 str0"
   x1="1048"
   y1="556"
   x2="984"
   y2="445"
   id="line3" />&#10;   <line
   class="fil0 str0"
   x1="556"
   y1="1048"
   x2="445"
   y2="984"
   id="line4" />&#10;   <line
   class="fil0 str0"
   x1="376"
   y1="1721"
   x2="247"
   y2="1721"
   id="line5" />&#10;  </g>&#10;  <path
   class="fil0 str1"
   d="M312 2534c-143,-247 -218,-528 -218,-813 0,-899 728,-1627 1627,-1627 581,0 1118,310 1409,813"
   id="path5" />&#10;  <path
   class="fil1"
   d="M953 1346l0 724 390 0c31,0 55,8 72,24 16,16 25,36 25,60 0,24 -9,44 -25,59 -16,15 -40,23 -72,23l-464 0c-42,0 -72,-10 -91,-29 -18,-20 -27,-51 -27,-95l0 -766c0,-40 9,-71 26,-91 17,-21 40,-31 69,-31 29,0 52,10 70,30 18,20 27,51 27,92zm1401 740l-152 -634 0 687c0,38 -8,66 -25,85 -16,19 -37,29 -64,29 -26,0 -47,-10 -63,-29 -17,-18 -25,-47 -25,-85l0 -788c0,-43 11,-72 33,-88 21,-15 50,-22 87,-22l60 0c35,0 61,3 77,10 17,7 29,19 37,37 7,17 16,46 26,86l138 545 138 -545c10,-40 19,-69 27,-86 7,-18 19,-30 35,-37 17,-7 43,-10 79,-10l59 0c37,0 66,7 88,22 21,16 32,45 32,88l0 788c0,38 -8,66 -24,85 -17,19 -38,29 -65,29 -26,0 -47,-10 -63,-29 -16,-19 -25,-47 -25,-85l0 -687 -152 634c-10,41 -18,71 -24,90 -6,19 -18,37 -35,53 -17,16 -40,24 -70,24 -22,0 -41,-6 -57,-16 -15,-10 -28,-23 -36,-39 -9,-16 -16,-33 -21,-52 -5,-19 -10,-40 -15,-60z"
   id="path6" />&#10;  <g
   id="g7">&#10;   <path
   class="fil2"
   d="M1815 2161c0,47 -38,85 -84,85 -47,0 -85,-38 -85,-85l169 0zm0 -1154l0 1154 -169 0 0 -1154 169 0zm-84 -432l219 438 -438 0 219 -438zm-85 432c0,-47 38,-84 85,-84 46,0 84,37 84,84l-169 0z"
   id="path7" />&#10;  </g>&#10;  <g
   id="g10">&#10;   <line
   class="fil0 str2"
   x1="3233"
   y1="1326"
   x2="3233"
   y2="2170"
   id="line7" />&#10;   <line
   class="fil0 str2"
   x1="3798"
   y1="1382"
   x2="3233"
   y2="1382"
   id="line8" />&#10;   <line
   class="fil0 str2"
   x1="3798"
   y1="1745"
   x2="3460"
   y2="1745"
   id="line9" />&#10;   <line
   class="fil0 str2"
   x1="3798"
   y1="2104"
   x2="3233"
   y2="2104"
   id="line10" />&#10;   <polygon
   class="fil3"
   points="3531,1661 3505,1661 3505,1574 3235,1743 3505,1912 3505,1828 3531,1828 "
   id="polygon10" />&#10;  </g>&#10; </g>&#10;</svg>
